<svg width="30" height="31" viewBox="0 0 30 31" fill="none" xmlns="http://www.w3.org/2000/svg">
<g clip-path="url(#clip0_281_290)">
<path d="M11.4333 23.8292L2.74164 15.1458C2.60512 14.9864 2.53378 14.7814 2.54188 14.5716C2.54998 14.3619 2.63693 14.1629 2.78534 14.0145C2.93375 13.8661 3.1327 13.7792 3.34243 13.7711C3.55216 13.763 3.75722 13.8343 3.91664 13.9708L11.4166 21.4708L26.075 6.82917C26.2344 6.69264 26.4395 6.6213 26.6492 6.62941C26.8589 6.63751 27.0579 6.72445 27.2063 6.87286C27.3547 7.02127 27.4416 7.22022 27.4497 7.42995C27.4578 7.63968 27.3865 7.84475 27.25 8.00416L11.4333 23.8292Z" fill="white"/>
</g>
<defs>
<clipPath id="clip0_281_290">
<rect width="30" height="30" fill="white" transform="translate(0 0.75415)"/>
</clipPath>
</defs>
</svg>
