<svg width="30" height="31" viewBox="0 0 30 31" fill="none" xmlns="http://www.w3.org/2000/svg">
<path fill-rule="evenodd" clip-rule="evenodd" d="M15 7.00421C14.3383 7.00415 13.6883 7.17919 13.1161 7.51156C12.5439 7.84393 12.0699 8.3218 11.7421 8.89664C11.4143 9.47148 11.2444 10.1228 11.2498 10.7845C11.2551 11.4462 11.4355 12.0947 11.7725 12.6642C11.8927 12.8666 11.9533 13.0989 11.9473 13.3343C11.9414 13.5696 11.869 13.7985 11.7387 13.9945C11.6083 14.1906 11.4252 14.3459 11.2105 14.4424C10.9958 14.539 10.7582 14.573 10.525 14.5405C9.91878 14.4549 9.30079 14.519 8.72505 14.7273C8.14931 14.9356 7.63333 15.2817 7.22218 15.7354C6.81103 16.1891 6.51722 16.7365 6.3664 17.3299C6.21559 17.9233 6.21236 18.5446 6.357 19.1396C6.50164 19.7345 6.78975 20.285 7.19617 20.7429C7.60258 21.2008 8.11494 21.5522 8.68848 21.7665C9.26203 21.9808 9.87931 22.0514 10.4864 21.9721C11.0935 21.8928 11.672 21.6661 12.1713 21.3117C12.3776 21.1649 12.6236 21.0842 12.8768 21.0803C13.13 21.0764 13.3783 21.1495 13.5891 21.2899C13.7998 21.4303 13.9629 21.6314 14.0568 21.8665C14.1507 22.1017 14.171 22.3598 14.115 22.6067C13.8813 23.6746 13.5777 24.726 13.2063 25.7542H16.7938C16.4163 24.7417 16.1188 23.6405 15.885 22.6067C15.829 22.3598 15.8493 22.1017 15.9432 21.8665C16.0372 21.6314 16.2003 21.4303 16.411 21.2899C16.6217 21.1495 16.8701 21.0764 17.1233 21.0803C17.3764 21.0842 17.6225 21.1649 17.8288 21.3117C18.3281 21.6661 18.9065 21.8928 19.5136 21.9721C20.1207 22.0514 20.738 21.9808 21.3116 21.7665C21.8851 21.5522 22.3975 21.2008 22.8039 20.7429C23.2103 20.285 23.4984 19.7345 23.6431 19.1396C23.7877 18.5446 23.7845 17.9233 23.6337 17.3299C23.4828 16.7365 23.189 16.1891 22.7779 15.7354C22.3667 15.2817 21.8507 14.9356 21.275 14.7273C20.6993 14.519 20.0813 14.4549 19.475 14.5405C19.242 14.5728 19.0046 14.5388 18.7901 14.4422C18.5756 14.3457 18.3927 14.1906 18.2624 13.9948C18.1321 13.7989 18.0597 13.5703 18.0535 13.3351C18.0474 13.1 18.1077 12.8679 18.2275 12.6655C18.5649 12.096 18.7455 11.4473 18.751 10.7854C18.7565 10.1235 18.5867 9.47198 18.2589 8.89695C17.9311 8.32191 17.4569 7.8439 16.8845 7.51146C16.3121 7.17903 15.6619 7.00402 15 7.00421ZM8.75003 10.7542C8.7505 9.87656 8.93581 9.00884 9.29389 8.20756C9.65197 7.40628 10.1748 6.6894 10.8283 6.10359C11.4819 5.51778 12.2515 5.07618 13.087 4.80755C13.9225 4.53891 14.8053 4.44925 15.6777 4.54442C16.5502 4.63959 17.3929 4.91744 18.1508 5.35989C18.9088 5.80234 19.5651 6.39947 20.077 7.1124C20.5888 7.82532 20.9448 8.63806 21.1217 9.4977C21.2986 10.3573 21.2925 11.2446 21.1038 12.1017C22.7067 12.4168 24.1226 13.3467 25.0487 14.6925C25.9747 16.0383 26.3372 17.693 26.0587 19.3027C25.7802 20.9124 24.8828 22.3491 23.5585 23.3056C22.2342 24.262 20.5881 24.6622 18.9725 24.4205C19.2263 25.173 19.51 25.8405 19.8225 26.3605C19.9365 26.5502 19.9981 26.7668 20.0009 26.9881C20.0038 27.2095 19.9478 27.4276 19.8387 27.6202C19.7296 27.8128 19.5714 27.973 19.3801 28.0844C19.1888 28.1958 18.9714 28.2544 18.75 28.2542H11.25C11.0288 28.2542 10.8115 28.1954 10.6204 28.0839C10.4293 27.9724 10.2712 27.8122 10.1623 27.6197C10.0533 27.4271 9.99747 27.2091 10.0004 26.9878C10.0033 26.7666 10.0648 26.5501 10.1788 26.3605C10.4913 25.8405 10.7738 25.173 11.0275 24.4205C9.39396 24.7031 7.71503 24.3252 6.36008 23.3699C5.00513 22.4147 4.08515 20.9603 3.80253 19.3267C3.51991 17.6931 3.89779 16.0142 4.85306 14.6593C5.80832 13.3043 7.26271 12.3843 8.89628 12.1017C8.79882 11.6592 8.74978 11.2074 8.75003 10.7542Z" fill="#41B15B"/>
</svg>
